# xmcd
#
# Track frame offsets:
# 150
# 11966
# 24033
#
# Disc length: 471 seconds
#
#
# Revision: 0
# Processed by: cddbd v1.5.1PL0 Copyright (c) Steve Scherf et al.
# Submitted via: FreeRIP 2.941 
#
DISCID=1601d503
DTITLE=My Visor  - The Sickroom Mixes
DYEAR=2005
DGENRE=Alternative
TTITLE0=Frank
TTITLE1=Think Of You
TTITLE2=Nothing to Say
EXTD=
EXTT0=
EXTT1=
EXTT2=
PLAYORDER=
